<?xml version="1.0" encoding="UTF-8"?>
<svg xmlns="http://www.w3.org/2000/svg" viewBox="0 0 320 80" role="img" aria-labelledby="authLogoTitle authLogoDesc">
	<title id="authLogoTitle">MoonChef</title>
	<desc id="authLogoDesc">Compact MoonChef logo for auth screens (icon + wordmark).</desc>
	<g transform="translate(8,12)">
		<!-- simplified crescent + hat -->
		<path d="M64 6c0 22.09-17.91 40-40 40C23.42 46 10 36 10 26S23.42 6 40 6c5.5 0 10.6 1.84 14.9 4.9C58.2 14 64 6 64 6z" fill="#FFD66B"/>
		<path d="M48 12c0 15-11.9 27-27 27 6.2-3 10.4-9.9 10.4-18.4S27.5 14.8 21.3 13c12-6 29-2 29 2z" fill="#fff" opacity="0.12"/>
		<path d="M36 14c-4 0-7 3-7 6 0 0-6 1.5-6 6v1h26v-1c0-4-6-6-6-6 0-3-3-6-7-6z" fill="#fff"/>
	</g>
	<g transform="translate(120,46)">
		<text x="0" y="0" font-family="Verdana, Geneva, sans-serif" font-size="24" font-weight="600" fill="#0F172A">Moon</text>
		<text x="70" y="0" font-family="Verdana, Geneva, sans-serif" font-size="24" font-weight="600" fill="#06B6D4">Chef</text>
	</g>
</svg>
