<?xml version="1.0" encoding="UTF-8"?>
<svg xmlns="http://www.w3.org/2000/svg" viewBox="0 0 320 80" role="img" aria-labelledby="logoDarkTitle logoDarkDesc">
	<title id="logoDarkTitle">MoonChef</title>
	<desc id="logoDarkDesc">White MoonChef logo for dark backgrounds: crescent moon and hat with wordmark.</desc>
	<g transform="translate(16,8)">
		<path d="M72 8c0 26.51-21.49 48-48 48C23.42 56 10 44.58 10 31S23.42 6 40 6c6.98 0 13.48 2.34 18.75 6.25C63.13 14.16 72 8 72 8z" fill="#FFFFFF"/>
		<g transform="translate(6,2)">
			<path d="M38 6c-6 0-10 4-10 8 0 0-8 2-8 8v2h36v-2c0-6-8-8-8-8 0-4-4-8-10-8z" fill="#FFFFFF" opacity="0.95"/>
		</g>
	</g>
	<g transform="translate(120,46)">
		<text x="0" y="0" font-family="Verdana, Geneva, sans-serif" font-size="28" font-weight="600" fill="#FFFFFF">Moon</text>
		<text x="80" y="0" font-family="Verdana, Geneva, sans-serif" font-size="28" font-weight="600" fill="#FFFFFF">Chef</text>
	</g>
</svg>
